G04 #@! TF.GenerationSoftware,KiCad,Pcbnew,6.0.5*
G04 #@! TF.CreationDate,2022-08-11T19:52:30+02:00*
G04 #@! TF.ProjectId,_transcribe_,5f747261-6e73-4637-9269-62655f2e6b69,v0_1*
G04 #@! TF.SameCoordinates,Original*
G04 #@! TF.FileFunction,Legend,Top*
G04 #@! TF.FilePolarity,Positive*
%FSLAX46Y46*%
G04 Gerber Fmt 4.6, Leading zero omitted, Abs format (unit mm)*
G04 Created by KiCad (PCBNEW 6.0.5) date 2022-08-11 19:52:30*
%MOMM*%
%LPD*%
G01*
G04 APERTURE LIST*
%ADD10C,0.120000*%
%ADD11C,0.350000*%
%ADD12C,0.150000*%
%ADD13C,0.300000*%
%ADD14C,0.127000*%
%ADD15C,0.200000*%
%ADD16R,1.600000X1.600000*%
%ADD17C,1.600000*%
%ADD18O,1.750000X3.500000*%
%ADD19R,3.500000X2.500000*%
G04 APERTURE END LIST*
D10*
X-210000000Y790000000D02*
X-210000000Y745000000D01*
X-268500000Y771500000D02*
X-274000000Y771500000D01*
X-274000000Y771500000D02*
X-274000000Y790000000D01*
X-268500000Y761500000D02*
X-268500000Y771500000D01*
X-210000000Y745000000D02*
X-210000000Y754000000D01*
X-230000000Y790000000D02*
X-230000000Y751500000D01*
X-257000000Y745000000D02*
X-257000000Y760820000D01*
D11*
X-229502380Y757391666D02*
X-228550000Y757391666D01*
X-229692857Y756820238D02*
X-229026190Y758820238D01*
X-228359523Y756820238D01*
X-227692857Y757010714D02*
X-227597619Y756915476D01*
X-227692857Y756820238D01*
X-227788095Y756915476D01*
X-227692857Y757010714D01*
X-227692857Y756820238D01*
X-288333333Y775142857D02*
X-288047619Y775047619D01*
X-287952380Y774952380D01*
X-287857142Y774761904D01*
X-287857142Y774476190D01*
X-287952380Y774285714D01*
X-288047619Y774190476D01*
X-288238095Y774095238D01*
X-289000000Y774095238D01*
X-289000000Y776095238D01*
X-288333333Y776095238D01*
X-288142857Y776000000D01*
X-288047619Y775904761D01*
X-287952380Y775714285D01*
X-287952380Y775523809D01*
X-288047619Y775333333D01*
X-288142857Y775238095D01*
X-288333333Y775142857D01*
X-289000000Y775142857D01*
X-287000000Y774285714D02*
X-286904761Y774190476D01*
X-287000000Y774095238D01*
X-287095238Y774190476D01*
X-287000000Y774285714D01*
X-287000000Y774095238D01*
D12*
X-229475000Y751764285D02*
X-229475000Y750764285D01*
X-229475000Y751716666D02*
X-229379761Y751764285D01*
X-229189285Y751764285D01*
X-229094047Y751716666D01*
X-229046428Y751669047D01*
X-228998809Y751573809D01*
X-228998809Y751288095D01*
X-229046428Y751192857D01*
X-229094047Y751145238D01*
X-229189285Y751097619D01*
X-229379761Y751097619D01*
X-229475000Y751145238D01*
X-228570238Y751097619D02*
X-228570238Y751764285D01*
X-228570238Y751573809D02*
X-228522619Y751669047D01*
X-228475000Y751716666D01*
X-228379761Y751764285D01*
X-228284523Y751764285D01*
X-227808333Y751097619D02*
X-227903571Y751145238D01*
X-227951190Y751192857D01*
X-227998809Y751288095D01*
X-227998809Y751573809D01*
X-227951190Y751669047D01*
X-227903571Y751716666D01*
X-227808333Y751764285D01*
X-227665476Y751764285D01*
X-227570238Y751716666D01*
X-227522619Y751669047D01*
X-227475000Y751573809D01*
X-227475000Y751288095D01*
X-227522619Y751192857D01*
X-227570238Y751145238D01*
X-227665476Y751097619D01*
X-227808333Y751097619D01*
X-227046428Y751478571D02*
X-226284523Y751478571D01*
X-225808333Y751097619D02*
X-225808333Y751764285D01*
X-225808333Y751669047D02*
X-225760714Y751716666D01*
X-225665476Y751764285D01*
X-225522619Y751764285D01*
X-225427380Y751716666D01*
X-225379761Y751621428D01*
X-225379761Y751097619D01*
X-225379761Y751621428D02*
X-225332142Y751716666D01*
X-225236904Y751764285D01*
X-225094047Y751764285D01*
X-224998809Y751716666D01*
X-224951190Y751621428D01*
X-224951190Y751097619D01*
X-224475000Y751097619D02*
X-224475000Y751764285D01*
X-224475000Y752097619D02*
X-224522619Y752050000D01*
X-224475000Y752002380D01*
X-224427380Y752050000D01*
X-224475000Y752097619D01*
X-224475000Y752002380D01*
X-223570238Y751145238D02*
X-223665476Y751097619D01*
X-223855952Y751097619D01*
X-223951190Y751145238D01*
X-223998809Y751192857D01*
X-224046428Y751288095D01*
X-224046428Y751573809D01*
X-223998809Y751669047D01*
X-223951190Y751716666D01*
X-223855952Y751764285D01*
X-223665476Y751764285D01*
X-223570238Y751716666D01*
X-223141666Y751097619D02*
X-223141666Y751764285D01*
X-223141666Y751573809D02*
X-223094047Y751669047D01*
X-223046428Y751716666D01*
X-222951190Y751764285D01*
X-222855952Y751764285D01*
X-222379761Y751097619D02*
X-222475000Y751145238D01*
X-222522619Y751192857D01*
X-222570238Y751288095D01*
X-222570238Y751573809D01*
X-222522619Y751669047D01*
X-222475000Y751716666D01*
X-222379761Y751764285D01*
X-222236904Y751764285D01*
X-222141666Y751716666D01*
X-222094047Y751669047D01*
X-222046428Y751573809D01*
X-222046428Y751288095D01*
X-222094047Y751192857D01*
X-222141666Y751145238D01*
X-222236904Y751097619D01*
X-222379761Y751097619D01*
X-221617857Y751478571D02*
X-220855952Y751478571D01*
X-219903571Y752097619D02*
X-220379761Y752097619D01*
X-220427380Y751621428D01*
X-220379761Y751669047D01*
X-220284523Y751716666D01*
X-220046428Y751716666D01*
X-219951190Y751669047D01*
X-219903571Y751621428D01*
X-219855952Y751526190D01*
X-219855952Y751288095D01*
X-219903571Y751192857D01*
X-219951190Y751145238D01*
X-220046428Y751097619D01*
X-220284523Y751097619D01*
X-220379761Y751145238D01*
X-220427380Y751192857D01*
X-219522619Y751764285D02*
X-219284523Y751097619D01*
X-219046428Y751764285D01*
X-217475000Y751764285D02*
X-217475000Y751097619D01*
X-217903571Y751764285D02*
X-217903571Y751240476D01*
X-217855952Y751145238D01*
X-217760714Y751097619D01*
X-217617857Y751097619D01*
X-217522619Y751145238D01*
X-217475000Y751192857D01*
X-216427380Y751192857D02*
X-216475000Y751145238D01*
X-216617857Y751097619D01*
X-216713095Y751097619D01*
X-216855952Y751145238D01*
X-216951190Y751240476D01*
X-216998809Y751335714D01*
X-217046428Y751526190D01*
X-217046428Y751669047D01*
X-216998809Y751859523D01*
X-216951190Y751954761D01*
X-216855952Y752050000D01*
X-216713095Y752097619D01*
X-216617857Y752097619D01*
X-216475000Y752050000D01*
X-216427380Y752002380D01*
X-253380952Y759095238D02*
X-253285714Y759047619D01*
X-253095238Y759047619D01*
X-253000000Y759095238D01*
X-252952380Y759190476D01*
X-252952380Y759238095D01*
X-253000000Y759333333D01*
X-253095238Y759380952D01*
X-253238095Y759380952D01*
X-253333333Y759428571D01*
X-253380952Y759523809D01*
X-253380952Y759571428D01*
X-253333333Y759666666D01*
X-253238095Y759714285D01*
X-253095238Y759714285D01*
X-253000000Y759666666D01*
X-252142857Y759095238D02*
X-252238095Y759047619D01*
X-252428571Y759047619D01*
X-252523809Y759095238D01*
X-252571428Y759190476D01*
X-252571428Y759571428D01*
X-252523809Y759666666D01*
X-252428571Y759714285D01*
X-252238095Y759714285D01*
X-252142857Y759666666D01*
X-252095238Y759571428D01*
X-252095238Y759476190D01*
X-252571428Y759380952D01*
X-251666666Y759047619D02*
X-251666666Y759714285D01*
X-251666666Y759523809D02*
X-251619047Y759619047D01*
X-251571428Y759666666D01*
X-251476190Y759714285D01*
X-251380952Y759714285D01*
X-251047619Y759047619D02*
X-251047619Y759714285D01*
X-251047619Y760047619D02*
X-251095238Y760000000D01*
X-251047619Y759952380D01*
X-251000000Y760000000D01*
X-251047619Y760047619D01*
X-251047619Y759952380D01*
X-250142857Y759047619D02*
X-250142857Y759571428D01*
X-250190476Y759666666D01*
X-250285714Y759714285D01*
X-250476190Y759714285D01*
X-250571428Y759666666D01*
X-250142857Y759095238D02*
X-250238095Y759047619D01*
X-250476190Y759047619D01*
X-250571428Y759095238D01*
X-250619047Y759190476D01*
X-250619047Y759285714D01*
X-250571428Y759380952D01*
X-250476190Y759428571D01*
X-250238095Y759428571D01*
X-250142857Y759476190D01*
X-249523809Y759047619D02*
X-249619047Y759095238D01*
X-249666666Y759190476D01*
X-249666666Y760047619D01*
X-248380952Y759047619D02*
X-248380952Y759714285D01*
X-248380952Y759619047D02*
X-248333333Y759666666D01*
X-248238095Y759714285D01*
X-248095238Y759714285D01*
X-248000000Y759666666D01*
X-247952380Y759571428D01*
X-247952380Y759047619D01*
X-247952380Y759571428D02*
X-247904761Y759666666D01*
X-247809523Y759714285D01*
X-247666666Y759714285D01*
X-247571428Y759666666D01*
X-247523809Y759571428D01*
X-247523809Y759047619D01*
X-247047619Y759047619D02*
X-247047619Y759714285D01*
X-247047619Y760047619D02*
X-247095238Y760000000D01*
X-247047619Y759952380D01*
X-247000000Y760000000D01*
X-247047619Y760047619D01*
X-247047619Y759952380D01*
X-246142857Y759047619D02*
X-246142857Y760047619D01*
X-246142857Y759095238D02*
X-246238095Y759047619D01*
X-246428571Y759047619D01*
X-246523809Y759095238D01*
X-246571428Y759142857D01*
X-246619047Y759238095D01*
X-246619047Y759523809D01*
X-246571428Y759619047D01*
X-246523809Y759666666D01*
X-246428571Y759714285D01*
X-246238095Y759714285D01*
X-246142857Y759666666D01*
X-245666666Y759047619D02*
X-245666666Y759714285D01*
X-245666666Y760047619D02*
X-245714285Y760000000D01*
X-245666666Y759952380D01*
X-245619047Y760000000D01*
X-245666666Y760047619D01*
X-245666666Y759952380D01*
X-289500000Y772047619D02*
X-289500000Y772714285D01*
X-289500000Y772523809D02*
X-289452380Y772619047D01*
X-289404761Y772666666D01*
X-289309523Y772714285D01*
X-289214285Y772714285D01*
X-288452380Y772714285D02*
X-288452380Y772047619D01*
X-288690476Y773095238D02*
X-288928571Y772380952D01*
X-288309523Y772380952D01*
X-287976190Y772952380D02*
X-287928571Y773000000D01*
X-287833333Y773047619D01*
X-287595238Y773047619D01*
X-287500000Y773000000D01*
X-287452380Y772952380D01*
X-287404761Y772857142D01*
X-287404761Y772761904D01*
X-287452380Y772619047D01*
X-288023809Y772047619D01*
X-287404761Y772047619D01*
X-287023809Y772952380D02*
X-286976190Y773000000D01*
X-286880952Y773047619D01*
X-286642857Y773047619D01*
X-286547619Y773000000D01*
X-286500000Y772952380D01*
X-286452380Y772857142D01*
X-286452380Y772761904D01*
X-286500000Y772619047D01*
X-287071428Y772047619D01*
X-286452380Y772047619D01*
D11*
X-255357142Y759285714D02*
X-255452380Y759190476D01*
X-255738095Y759095238D01*
X-255928571Y759095238D01*
X-256214285Y759190476D01*
X-256404761Y759380952D01*
X-256500000Y759571428D01*
X-256595238Y759952380D01*
X-256595238Y760238095D01*
X-256500000Y760619047D01*
X-256404761Y760809523D01*
X-256214285Y761000000D01*
X-255928571Y761095238D01*
X-255738095Y761095238D01*
X-255452380Y761000000D01*
X-255357142Y760904761D01*
X-254500000Y759285714D02*
X-254404761Y759190476D01*
X-254500000Y759095238D01*
X-254595238Y759190476D01*
X-254500000Y759285714D01*
X-254500000Y759095238D01*
D13*
X-264535714Y774828928D02*
X-264535714Y775828928D01*
X-264535714Y775686071D02*
X-264464285Y775757500D01*
X-264321428Y775828928D01*
X-264107142Y775828928D01*
X-263964285Y775757500D01*
X-263892857Y775614642D01*
X-263892857Y774828928D01*
X-263892857Y775614642D02*
X-263821428Y775757500D01*
X-263678571Y775828928D01*
X-263464285Y775828928D01*
X-263321428Y775757500D01*
X-263250000Y775614642D01*
X-263250000Y774828928D01*
X-262535714Y774828928D02*
X-262535714Y775828928D01*
X-262535714Y776328928D02*
X-262607142Y776257500D01*
X-262535714Y776186071D01*
X-262464285Y776257500D01*
X-262535714Y776328928D01*
X-262535714Y776186071D01*
X-261178571Y774828928D02*
X-261178571Y776328928D01*
X-261178571Y774900357D02*
X-261321428Y774828928D01*
X-261607142Y774828928D01*
X-261750000Y774900357D01*
X-261821428Y774971785D01*
X-261892857Y775114642D01*
X-261892857Y775543214D01*
X-261821428Y775686071D01*
X-261750000Y775757500D01*
X-261607142Y775828928D01*
X-261321428Y775828928D01*
X-261178571Y775757500D01*
X-260464285Y774828928D02*
X-260464285Y775828928D01*
X-260464285Y776328928D02*
X-260535714Y776257500D01*
X-260464285Y776186071D01*
X-260392857Y776257500D01*
X-260464285Y776328928D01*
X-260464285Y776186071D01*
X-263714285Y772413928D02*
X-263857142Y772485357D01*
X-263928571Y772556785D01*
X-264000000Y772699642D01*
X-264000000Y773128214D01*
X-263928571Y773271071D01*
X-263857142Y773342500D01*
X-263714285Y773413928D01*
X-263500000Y773413928D01*
X-263357142Y773342500D01*
X-263285714Y773271071D01*
X-263214285Y773128214D01*
X-263214285Y772699642D01*
X-263285714Y772556785D01*
X-263357142Y772485357D01*
X-263500000Y772413928D01*
X-263714285Y772413928D01*
X-261928571Y773413928D02*
X-261928571Y772413928D01*
X-262571428Y773413928D02*
X-262571428Y772628214D01*
X-262500000Y772485357D01*
X-262357142Y772413928D01*
X-262142857Y772413928D01*
X-262000000Y772485357D01*
X-261928571Y772556785D01*
X-261428571Y773413928D02*
X-260857142Y773413928D01*
X-261214285Y773913928D02*
X-261214285Y772628214D01*
X-261142857Y772485357D01*
X-261000000Y772413928D01*
X-260857142Y772413928D01*
X-243335714Y774728928D02*
X-243335714Y775728928D01*
X-243335714Y775586071D02*
X-243264285Y775657500D01*
X-243121428Y775728928D01*
X-242907142Y775728928D01*
X-242764285Y775657500D01*
X-242692857Y775514642D01*
X-242692857Y774728928D01*
X-242692857Y775514642D02*
X-242621428Y775657500D01*
X-242478571Y775728928D01*
X-242264285Y775728928D01*
X-242121428Y775657500D01*
X-242050000Y775514642D01*
X-242050000Y774728928D01*
X-241335714Y774728928D02*
X-241335714Y775728928D01*
X-241335714Y776228928D02*
X-241407142Y776157500D01*
X-241335714Y776086071D01*
X-241264285Y776157500D01*
X-241335714Y776228928D01*
X-241335714Y776086071D01*
X-239978571Y774728928D02*
X-239978571Y776228928D01*
X-239978571Y774800357D02*
X-240121428Y774728928D01*
X-240407142Y774728928D01*
X-240550000Y774800357D01*
X-240621428Y774871785D01*
X-240692857Y775014642D01*
X-240692857Y775443214D01*
X-240621428Y775586071D01*
X-240550000Y775657500D01*
X-240407142Y775728928D01*
X-240121428Y775728928D01*
X-239978571Y775657500D01*
X-239264285Y774728928D02*
X-239264285Y775728928D01*
X-239264285Y776228928D02*
X-239335714Y776157500D01*
X-239264285Y776086071D01*
X-239192857Y776157500D01*
X-239264285Y776228928D01*
X-239264285Y776086071D01*
X-241978571Y772313928D02*
X-241978571Y773313928D01*
X-241978571Y773813928D02*
X-242050000Y773742500D01*
X-241978571Y773671071D01*
X-241907142Y773742500D01*
X-241978571Y773813928D01*
X-241978571Y773671071D01*
X-241264285Y773313928D02*
X-241264285Y772313928D01*
X-241264285Y773171071D02*
X-241192857Y773242500D01*
X-241050000Y773313928D01*
X-240835714Y773313928D01*
X-240692857Y773242500D01*
X-240621428Y773099642D01*
X-240621428Y772313928D01*
X-285857142Y775092857D02*
X-285714285Y775021428D01*
X-285428571Y775021428D01*
X-285285714Y775092857D01*
X-285214285Y775235714D01*
X-285214285Y775307142D01*
X-285285714Y775450000D01*
X-285428571Y775521428D01*
X-285642857Y775521428D01*
X-285785714Y775592857D01*
X-285857142Y775735714D01*
X-285857142Y775807142D01*
X-285785714Y775950000D01*
X-285642857Y776021428D01*
X-285428571Y776021428D01*
X-285285714Y775950000D01*
X-284000000Y775092857D02*
X-284142857Y775021428D01*
X-284428571Y775021428D01*
X-284571428Y775092857D01*
X-284642857Y775235714D01*
X-284642857Y775807142D01*
X-284571428Y775950000D01*
X-284428571Y776021428D01*
X-284142857Y776021428D01*
X-284000000Y775950000D01*
X-283928571Y775807142D01*
X-283928571Y775664285D01*
X-284642857Y775521428D01*
X-283285714Y775021428D02*
X-283285714Y776021428D01*
X-283285714Y775735714D02*
X-283214285Y775878571D01*
X-283142857Y775950000D01*
X-283000000Y776021428D01*
X-282857142Y776021428D01*
X-282357142Y775021428D02*
X-282357142Y776021428D01*
X-282357142Y776521428D02*
X-282428571Y776450000D01*
X-282357142Y776378571D01*
X-282285714Y776450000D01*
X-282357142Y776521428D01*
X-282357142Y776378571D01*
X-281000000Y775021428D02*
X-281000000Y775807142D01*
X-281071428Y775950000D01*
X-281214285Y776021428D01*
X-281500000Y776021428D01*
X-281642857Y775950000D01*
X-281000000Y775092857D02*
X-281142857Y775021428D01*
X-281500000Y775021428D01*
X-281642857Y775092857D01*
X-281714285Y775235714D01*
X-281714285Y775378571D01*
X-281642857Y775521428D01*
X-281500000Y775592857D01*
X-281142857Y775592857D01*
X-281000000Y775664285D01*
X-280071428Y775021428D02*
X-280214285Y775092857D01*
X-280285714Y775235714D01*
X-280285714Y776521428D01*
D12*
X-201976190Y746214285D02*
X-201976190Y745547619D01*
X-202404761Y746214285D02*
X-202404761Y745690476D01*
X-202357142Y745595238D01*
X-202261904Y745547619D01*
X-202119047Y745547619D01*
X-202023809Y745595238D01*
X-201976190Y745642857D01*
X-201547619Y745595238D02*
X-201452380Y745547619D01*
X-201261904Y745547619D01*
X-201166666Y745595238D01*
X-201119047Y745690476D01*
X-201119047Y745738095D01*
X-201166666Y745833333D01*
X-201261904Y745880952D01*
X-201404761Y745880952D01*
X-201500000Y745928571D01*
X-201547619Y746023809D01*
X-201547619Y746071428D01*
X-201500000Y746166666D01*
X-201404761Y746214285D01*
X-201261904Y746214285D01*
X-201166666Y746166666D01*
X-200690476Y745547619D02*
X-200690476Y746547619D01*
X-200690476Y746166666D02*
X-200595238Y746214285D01*
X-200404761Y746214285D01*
X-200309523Y746166666D01*
X-200261904Y746119047D01*
X-200214285Y746023809D01*
X-200214285Y745738095D01*
X-200261904Y745642857D01*
X-200309523Y745595238D01*
X-200404761Y745547619D01*
X-200595238Y745547619D01*
X-200690476Y745595238D01*
X-199785714Y745928571D02*
X-199023809Y745928571D01*
X-198547619Y745547619D02*
X-198547619Y746547619D01*
X-198119047Y745547619D02*
X-198119047Y746071428D01*
X-198166666Y746166666D01*
X-198261904Y746214285D01*
X-198404761Y746214285D01*
X-198500000Y746166666D01*
X-198547619Y746119047D01*
X-197500000Y745547619D02*
X-197595238Y745595238D01*
X-197642857Y745642857D01*
X-197690476Y745738095D01*
X-197690476Y746023809D01*
X-197642857Y746119047D01*
X-197595238Y746166666D01*
X-197500000Y746214285D01*
X-197357142Y746214285D01*
X-197261904Y746166666D01*
X-197214285Y746119047D01*
X-197166666Y746023809D01*
X-197166666Y745738095D01*
X-197214285Y745642857D01*
X-197261904Y745595238D01*
X-197357142Y745547619D01*
X-197500000Y745547619D01*
X-196785714Y745595238D02*
X-196690476Y745547619D01*
X-196500000Y745547619D01*
X-196404761Y745595238D01*
X-196357142Y745690476D01*
X-196357142Y745738095D01*
X-196404761Y745833333D01*
X-196500000Y745880952D01*
X-196642857Y745880952D01*
X-196738095Y745928571D01*
X-196785714Y746023809D01*
X-196785714Y746071428D01*
X-196738095Y746166666D01*
X-196642857Y746214285D01*
X-196500000Y746214285D01*
X-196404761Y746166666D01*
X-196071428Y746214285D02*
X-195690476Y746214285D01*
X-195928571Y746547619D02*
X-195928571Y745690476D01*
X-195880952Y745595238D01*
X-195785714Y745547619D01*
X-195690476Y745547619D01*
X-194642857Y745595238D02*
X-194547619Y745547619D01*
X-194357142Y745547619D01*
X-194261904Y745595238D01*
X-194214285Y745690476D01*
X-194214285Y745738095D01*
X-194261904Y745833333D01*
X-194357142Y745880952D01*
X-194500000Y745880952D01*
X-194595238Y745928571D01*
X-194642857Y746023809D01*
X-194642857Y746071428D01*
X-194595238Y746166666D01*
X-194500000Y746214285D01*
X-194357142Y746214285D01*
X-194261904Y746166666D01*
X-193785714Y745547619D02*
X-193785714Y746547619D01*
X-193357142Y745547619D02*
X-193357142Y746071428D01*
X-193404761Y746166666D01*
X-193500000Y746214285D01*
X-193642857Y746214285D01*
X-193738095Y746166666D01*
X-193785714Y746119047D01*
X-192880952Y745547619D02*
X-192880952Y746214285D01*
X-192880952Y746547619D02*
X-192928571Y746500000D01*
X-192880952Y746452380D01*
X-192833333Y746500000D01*
X-192880952Y746547619D01*
X-192880952Y746452380D01*
X-192023809Y745595238D02*
X-192119047Y745547619D01*
X-192309523Y745547619D01*
X-192404761Y745595238D01*
X-192452380Y745690476D01*
X-192452380Y746071428D01*
X-192404761Y746166666D01*
X-192309523Y746214285D01*
X-192119047Y746214285D01*
X-192023809Y746166666D01*
X-191976190Y746071428D01*
X-191976190Y745976190D01*
X-192452380Y745880952D01*
X-191404761Y745547619D02*
X-191500000Y745595238D01*
X-191547619Y745690476D01*
X-191547619Y746547619D01*
X-190595238Y745547619D02*
X-190595238Y746547619D01*
X-190595238Y745595238D02*
X-190690476Y745547619D01*
X-190880952Y745547619D01*
X-190976190Y745595238D01*
X-191023809Y745642857D01*
X-191071428Y745738095D01*
X-191071428Y746023809D01*
X-191023809Y746119047D01*
X-190976190Y746166666D01*
X-190880952Y746214285D01*
X-190690476Y746214285D01*
X-190595238Y746166666D01*
D11*
X-193000000Y747595238D02*
X-193000000Y749595238D01*
X-192523809Y749595238D01*
X-192238095Y749500000D01*
X-192047619Y749309523D01*
X-191952380Y749119047D01*
X-191857142Y748738095D01*
X-191857142Y748452380D01*
X-191952380Y748071428D01*
X-192047619Y747880952D01*
X-192238095Y747690476D01*
X-192523809Y747595238D01*
X-193000000Y747595238D01*
X-191000000Y747785714D02*
X-190904761Y747690476D01*
X-191000000Y747595238D01*
X-191095238Y747690476D01*
X-191000000Y747785714D01*
X-191000000Y747595238D01*
D12*
X-232809523Y757247619D02*
X-232809523Y756533333D01*
X-232857142Y756390476D01*
X-232952380Y756295238D01*
X-233095238Y756247619D01*
X-233190476Y756247619D01*
X-231809523Y756247619D02*
X-232380952Y756247619D01*
X-232095238Y756247619D02*
X-232095238Y757247619D01*
X-232190476Y757104761D01*
X-232285714Y757009523D01*
X-232380952Y756961904D01*
X-230857142Y756247619D02*
X-231428571Y756247619D01*
X-231142857Y756247619D02*
X-231142857Y757247619D01*
X-231238095Y757104761D01*
X-231333333Y757009523D01*
X-231428571Y756961904D01*
X-236951904Y765047619D02*
X-236951904Y764238095D01*
X-236904285Y764142857D01*
X-236856666Y764095238D01*
X-236761428Y764047619D01*
X-236570952Y764047619D01*
X-236475714Y764095238D01*
X-236428095Y764142857D01*
X-236380476Y764238095D01*
X-236380476Y765047619D01*
X-235999523Y765047619D02*
X-235380476Y765047619D01*
X-235713809Y764666666D01*
X-235570952Y764666666D01*
X-235475714Y764619047D01*
X-235428095Y764571428D01*
X-235380476Y764476190D01*
X-235380476Y764238095D01*
X-235428095Y764142857D01*
X-235475714Y764095238D01*
X-235570952Y764047619D01*
X-235856666Y764047619D01*
X-235951904Y764095238D01*
X-235999523Y764142857D01*
X-245691666Y760747619D02*
X-246025000Y761223809D01*
X-246263095Y760747619D02*
X-246263095Y761747619D01*
X-245882142Y761747619D01*
X-245786904Y761700000D01*
X-245739285Y761652380D01*
X-245691666Y761557142D01*
X-245691666Y761414285D01*
X-245739285Y761319047D01*
X-245786904Y761271428D01*
X-245882142Y761223809D01*
X-246263095Y761223809D01*
X-244834523Y761414285D02*
X-244834523Y760747619D01*
X-245072619Y761795238D02*
X-245310714Y761080952D01*
X-244691666Y761080952D01*
X-252666666Y757347619D02*
X-253000000Y757823809D01*
X-253238095Y757347619D02*
X-253238095Y758347619D01*
X-252857142Y758347619D01*
X-252761904Y758300000D01*
X-252714285Y758252380D01*
X-252666666Y758157142D01*
X-252666666Y758014285D01*
X-252714285Y757919047D01*
X-252761904Y757871428D01*
X-252857142Y757823809D01*
X-253238095Y757823809D01*
X-251714285Y757347619D02*
X-252285714Y757347619D01*
X-252000000Y757347619D02*
X-252000000Y758347619D01*
X-252095238Y758204761D01*
X-252190476Y758109523D01*
X-252285714Y758061904D01*
X-252766666Y753847619D02*
X-253100000Y754323809D01*
X-253338095Y753847619D02*
X-253338095Y754847619D01*
X-252957142Y754847619D01*
X-252861904Y754800000D01*
X-252814285Y754752380D01*
X-252766666Y754657142D01*
X-252766666Y754514285D01*
X-252814285Y754419047D01*
X-252861904Y754371428D01*
X-252957142Y754323809D01*
X-253338095Y754323809D01*
X-252385714Y754752380D02*
X-252338095Y754800000D01*
X-252242857Y754847619D01*
X-252004761Y754847619D01*
X-251909523Y754800000D01*
X-251861904Y754752380D01*
X-251814285Y754657142D01*
X-251814285Y754561904D01*
X-251861904Y754419047D01*
X-252433333Y753847619D01*
X-251814285Y753847619D01*
X-266761904Y768547619D02*
X-266761904Y767738095D01*
X-266714285Y767642857D01*
X-266666666Y767595238D01*
X-266571428Y767547619D01*
X-266380952Y767547619D01*
X-266285714Y767595238D01*
X-266238095Y767642857D01*
X-266190476Y767738095D01*
X-266190476Y768547619D01*
X-265285714Y768214285D02*
X-265285714Y767547619D01*
X-265523809Y768595238D02*
X-265761904Y767880952D01*
X-265142857Y767880952D01*
X-225861904Y788747619D02*
X-225861904Y787938095D01*
X-225814285Y787842857D01*
X-225766666Y787795238D01*
X-225671428Y787747619D01*
X-225480952Y787747619D01*
X-225385714Y787795238D01*
X-225338095Y787842857D01*
X-225290476Y787938095D01*
X-225290476Y788747619D01*
X-224290476Y787747619D02*
X-224861904Y787747619D01*
X-224576190Y787747619D02*
X-224576190Y788747619D01*
X-224671428Y788604761D01*
X-224766666Y788509523D01*
X-224861904Y788461904D01*
X-208261904Y788747619D02*
X-208261904Y787938095D01*
X-208214285Y787842857D01*
X-208166666Y787795238D01*
X-208071428Y787747619D01*
X-207880952Y787747619D01*
X-207785714Y787795238D01*
X-207738095Y787842857D01*
X-207690476Y787938095D01*
X-207690476Y788747619D01*
X-206738095Y788747619D02*
X-207214285Y788747619D01*
X-207261904Y788271428D01*
X-207214285Y788319047D01*
X-207119047Y788366666D01*
X-206880952Y788366666D01*
X-206785714Y788319047D01*
X-206738095Y788271428D01*
X-206690476Y788176190D01*
X-206690476Y787938095D01*
X-206738095Y787842857D01*
X-206785714Y787795238D01*
X-206880952Y787747619D01*
X-207119047Y787747619D01*
X-207214285Y787795238D01*
X-207261904Y787842857D01*
X-224491666Y757917857D02*
X-224539285Y757870238D01*
X-224682142Y757822619D01*
X-224777380Y757822619D01*
X-224920238Y757870238D01*
X-225015476Y757965476D01*
X-225063095Y758060714D01*
X-225110714Y758251190D01*
X-225110714Y758394047D01*
X-225063095Y758584523D01*
X-225015476Y758679761D01*
X-224920238Y758775000D01*
X-224777380Y758822619D01*
X-224682142Y758822619D01*
X-224539285Y758775000D01*
X-224491666Y758727380D01*
X-223539285Y757822619D02*
X-224110714Y757822619D01*
X-223825000Y757822619D02*
X-223825000Y758822619D01*
X-223920238Y758679761D01*
X-224015476Y758584523D01*
X-224110714Y758536904D01*
X-247147619Y765611904D02*
X-248147619Y765611904D01*
X-248147619Y765850000D01*
X-248100000Y765992857D01*
X-248004761Y766088095D01*
X-247909523Y766135714D01*
X-247719047Y766183333D01*
X-247576190Y766183333D01*
X-247385714Y766135714D01*
X-247290476Y766088095D01*
X-247195238Y765992857D01*
X-247147619Y765850000D01*
X-247147619Y765611904D01*
X-247147619Y767135714D02*
X-247147619Y766564285D01*
X-247147619Y766850000D02*
X-248147619Y766850000D01*
X-248004761Y766754761D01*
X-247909523Y766659523D01*
X-247861904Y766564285D01*
X-245047619Y768818095D02*
X-246047619Y768818095D01*
X-245047619Y769389523D02*
X-245619047Y768960952D01*
X-246047619Y769389523D02*
X-245476190Y768818095D01*
X-210217619Y747896666D02*
X-209503333Y747896666D01*
X-209360476Y747849047D01*
X-209265238Y747753809D01*
X-209217619Y747610952D01*
X-209217619Y747515714D01*
X-209217619Y748896666D02*
X-209217619Y748325238D01*
X-209217619Y748610952D02*
X-210217619Y748610952D01*
X-210074761Y748515714D01*
X-209979523Y748420476D01*
X-209931904Y748325238D01*
X-198963095Y747947619D02*
X-198963095Y748947619D01*
X-198725000Y748947619D01*
X-198582142Y748900000D01*
X-198486904Y748804761D01*
X-198439285Y748709523D01*
X-198391666Y748519047D01*
X-198391666Y748376190D01*
X-198439285Y748185714D01*
X-198486904Y748090476D01*
X-198582142Y747995238D01*
X-198725000Y747947619D01*
X-198963095Y747947619D01*
X-198010714Y748852380D02*
X-197963095Y748900000D01*
X-197867857Y748947619D01*
X-197629761Y748947619D01*
X-197534523Y748900000D01*
X-197486904Y748852380D01*
X-197439285Y748757142D01*
X-197439285Y748661904D01*
X-197486904Y748519047D01*
X-198058333Y747947619D01*
X-197439285Y747947619D01*
X-201336904Y749897619D02*
X-201336904Y750897619D01*
X-200765476Y749897619D02*
X-201194047Y750469047D01*
X-200765476Y750897619D02*
X-201336904Y750326190D01*
X-242047619Y766833333D02*
X-242523809Y766500000D01*
X-242047619Y766261904D02*
X-243047619Y766261904D01*
X-243047619Y766642857D01*
X-243000000Y766738095D01*
X-242952380Y766785714D01*
X-242857142Y766833333D01*
X-242714285Y766833333D01*
X-242619047Y766785714D01*
X-242571428Y766738095D01*
X-242523809Y766642857D01*
X-242523809Y766261904D01*
X-243047619Y767166666D02*
X-243047619Y767785714D01*
X-242666666Y767452380D01*
X-242666666Y767595238D01*
X-242619047Y767690476D01*
X-242571428Y767738095D01*
X-242476190Y767785714D01*
X-242238095Y767785714D01*
X-242142857Y767738095D01*
X-242095238Y767690476D01*
X-242047619Y767595238D01*
X-242047619Y767309523D01*
X-242095238Y767214285D01*
X-242142857Y767166666D01*
X-192383333Y786197619D02*
X-192383333Y785483333D01*
X-192430952Y785340476D01*
X-192526190Y785245238D01*
X-192669047Y785197619D01*
X-192764285Y785197619D01*
X-191764285Y785769047D02*
X-191859523Y785816666D01*
X-191907142Y785864285D01*
X-191954761Y785959523D01*
X-191954761Y786007142D01*
X-191907142Y786102380D01*
X-191859523Y786150000D01*
X-191764285Y786197619D01*
X-191573809Y786197619D01*
X-191478571Y786150000D01*
X-191430952Y786102380D01*
X-191383333Y786007142D01*
X-191383333Y785959523D01*
X-191430952Y785864285D01*
X-191478571Y785816666D01*
X-191573809Y785769047D01*
X-191764285Y785769047D01*
X-191859523Y785721428D01*
X-191907142Y785673809D01*
X-191954761Y785578571D01*
X-191954761Y785388095D01*
X-191907142Y785292857D01*
X-191859523Y785245238D01*
X-191764285Y785197619D01*
X-191573809Y785197619D01*
X-191478571Y785245238D01*
X-191430952Y785292857D01*
X-191383333Y785388095D01*
X-191383333Y785578571D01*
X-191430952Y785673809D01*
X-191478571Y785721428D01*
X-191573809Y785769047D01*
X-206991904Y752447619D02*
X-206991904Y751638095D01*
X-206944285Y751542857D01*
X-206896666Y751495238D01*
X-206801428Y751447619D01*
X-206610952Y751447619D01*
X-206515714Y751495238D01*
X-206468095Y751542857D01*
X-206420476Y751638095D01*
X-206420476Y752447619D01*
X-205515714Y752447619D02*
X-205706190Y752447619D01*
X-205801428Y752400000D01*
X-205849047Y752352380D01*
X-205944285Y752209523D01*
X-205991904Y752019047D01*
X-205991904Y751638095D01*
X-205944285Y751542857D01*
X-205896666Y751495238D01*
X-205801428Y751447619D01*
X-205610952Y751447619D01*
X-205515714Y751495238D01*
X-205468095Y751542857D01*
X-205420476Y751638095D01*
X-205420476Y751876190D01*
X-205468095Y751971428D01*
X-205515714Y752019047D01*
X-205610952Y752066666D01*
X-205801428Y752066666D01*
X-205896666Y752019047D01*
X-205944285Y751971428D01*
X-205991904Y751876190D01*
X-286584666Y777326095D02*
X-286584666Y776754666D01*
X-286622761Y776640380D01*
X-286698952Y776564190D01*
X-286813238Y776526095D01*
X-286889428Y776526095D01*
X-286241809Y777249904D02*
X-286203714Y777288000D01*
X-286127523Y777326095D01*
X-285937047Y777326095D01*
X-285860857Y777288000D01*
X-285822761Y777249904D01*
X-285784666Y777173714D01*
X-285784666Y777097523D01*
X-285822761Y776983238D01*
X-286279904Y776526095D01*
X-285784666Y776526095D01*
X-273793333Y758487619D02*
X-273793333Y757773333D01*
X-273840952Y757630476D01*
X-273936190Y757535238D01*
X-274079047Y757487619D01*
X-274174285Y757487619D01*
X-273412380Y758487619D02*
X-272793333Y758487619D01*
X-273126666Y758106666D01*
X-272983809Y758106666D01*
X-272888571Y758059047D01*
X-272840952Y758011428D01*
X-272793333Y757916190D01*
X-272793333Y757678095D01*
X-272840952Y757582857D01*
X-272888571Y757535238D01*
X-272983809Y757487619D01*
X-273269523Y757487619D01*
X-273364761Y757535238D01*
X-273412380Y757582857D01*
X-246084666Y777326095D02*
X-246084666Y776754666D01*
X-246122761Y776640380D01*
X-246198952Y776564190D01*
X-246313238Y776526095D01*
X-246389428Y776526095D01*
X-245360857Y777059428D02*
X-245360857Y776526095D01*
X-245551333Y777364190D02*
X-245741809Y776792761D01*
X-245246571Y776792761D01*
X-249333333Y773797619D02*
X-249333333Y773083333D01*
X-249380952Y772940476D01*
X-249476190Y772845238D01*
X-249619047Y772797619D01*
X-249714285Y772797619D01*
X-248380952Y773797619D02*
X-248857142Y773797619D01*
X-248904761Y773321428D01*
X-248857142Y773369047D01*
X-248761904Y773416666D01*
X-248523809Y773416666D01*
X-248428571Y773369047D01*
X-248380952Y773321428D01*
X-248333333Y773226190D01*
X-248333333Y772988095D01*
X-248380952Y772892857D01*
X-248428571Y772845238D01*
X-248523809Y772797619D01*
X-248761904Y772797619D01*
X-248857142Y772845238D01*
X-248904761Y772892857D01*
X-267084666Y777326095D02*
X-267084666Y776754666D01*
X-267122761Y776640380D01*
X-267198952Y776564190D01*
X-267313238Y776526095D01*
X-267389428Y776526095D01*
X-266360857Y777326095D02*
X-266513238Y777326095D01*
X-266589428Y777288000D01*
X-266627523Y777249904D01*
X-266703714Y777135619D01*
X-266741809Y776983238D01*
X-266741809Y776678476D01*
X-266703714Y776602285D01*
X-266665619Y776564190D01*
X-266589428Y776526095D01*
X-266437047Y776526095D01*
X-266360857Y776564190D01*
X-266322761Y776602285D01*
X-266284666Y776678476D01*
X-266284666Y776868952D01*
X-266322761Y776945142D01*
X-266360857Y776983238D01*
X-266437047Y777021333D01*
X-266589428Y777021333D01*
X-266665619Y776983238D01*
X-266703714Y776945142D01*
X-266741809Y776868952D01*
X-270333333Y773797619D02*
X-270333333Y773083333D01*
X-270380952Y772940476D01*
X-270476190Y772845238D01*
X-270619047Y772797619D01*
X-270714285Y772797619D01*
X-269952380Y773797619D02*
X-269285714Y773797619D01*
X-269714285Y772797619D01*
X-219633333Y755220238D02*
X-219490476Y755172619D01*
X-219252380Y755172619D01*
X-219157142Y755220238D01*
X-219109523Y755267857D01*
X-219061904Y755363095D01*
X-219061904Y755458333D01*
X-219109523Y755553571D01*
X-219157142Y755601190D01*
X-219252380Y755648809D01*
X-219442857Y755696428D01*
X-219538095Y755744047D01*
X-219585714Y755791666D01*
X-219633333Y755886904D01*
X-219633333Y755982142D01*
X-219585714Y756077380D01*
X-219538095Y756125000D01*
X-219442857Y756172619D01*
X-219204761Y756172619D01*
X-219061904Y756125000D01*
X-218728571Y756172619D02*
X-218490476Y755172619D01*
X-218300000Y755886904D01*
X-218109523Y755172619D01*
X-217871428Y756172619D01*
X-216966666Y755172619D02*
X-217538095Y755172619D01*
X-217252380Y755172619D02*
X-217252380Y756172619D01*
X-217347619Y756029761D01*
X-217442857Y755934523D01*
X-217538095Y755886904D01*
X-278261904Y768147619D02*
X-278261904Y767338095D01*
X-278214285Y767242857D01*
X-278166666Y767195238D01*
X-278071428Y767147619D01*
X-277880952Y767147619D01*
X-277785714Y767195238D01*
X-277738095Y767242857D01*
X-277690476Y767338095D01*
X-277690476Y768147619D01*
X-277261904Y768052380D02*
X-277214285Y768100000D01*
X-277119047Y768147619D01*
X-276880952Y768147619D01*
X-276785714Y768100000D01*
X-276738095Y768052380D01*
X-276690476Y767957142D01*
X-276690476Y767861904D01*
X-276738095Y767719047D01*
X-277309523Y767147619D01*
X-276690476Y767147619D01*
X-258242619Y746541666D02*
X-257528333Y746541666D01*
X-257385476Y746494047D01*
X-257290238Y746398809D01*
X-257242619Y746255952D01*
X-257242619Y746160714D01*
X-257242619Y747065476D02*
X-257242619Y747255952D01*
X-257290238Y747351190D01*
X-257337857Y747398809D01*
X-257480714Y747494047D01*
X-257671190Y747541666D01*
X-258052142Y747541666D01*
X-258147380Y747494047D01*
X-258195000Y747446428D01*
X-258242619Y747351190D01*
X-258242619Y747160714D01*
X-258195000Y747065476D01*
X-258147380Y747017857D01*
X-258052142Y746970238D01*
X-257814047Y746970238D01*
X-257718809Y747017857D01*
X-257671190Y747065476D01*
X-257623571Y747160714D01*
X-257623571Y747351190D01*
X-257671190Y747446428D01*
X-257718809Y747494047D01*
X-257814047Y747541666D01*
X-258207619Y748625476D02*
X-257493333Y748625476D01*
X-257350476Y748577857D01*
X-257255238Y748482619D01*
X-257207619Y748339761D01*
X-257207619Y748244523D01*
X-257207619Y749625476D02*
X-257207619Y749054047D01*
X-257207619Y749339761D02*
X-258207619Y749339761D01*
X-258064761Y749244523D01*
X-257969523Y749149285D01*
X-257921904Y749054047D01*
X-258207619Y750244523D02*
X-258207619Y750339761D01*
X-258160000Y750435000D01*
X-258112380Y750482619D01*
X-258017142Y750530238D01*
X-257826666Y750577857D01*
X-257588571Y750577857D01*
X-257398095Y750530238D01*
X-257302857Y750482619D01*
X-257255238Y750435000D01*
X-257207619Y750339761D01*
X-257207619Y750244523D01*
X-257255238Y750149285D01*
X-257302857Y750101666D01*
X-257398095Y750054047D01*
X-257588571Y750006428D01*
X-257826666Y750006428D01*
X-258017142Y750054047D01*
X-258112380Y750101666D01*
X-258160000Y750149285D01*
X-258207619Y750244523D01*
X-267866666Y759647619D02*
X-268199999Y760123809D01*
X-268438095Y759647619D02*
X-268438095Y760647619D01*
X-268057142Y760647619D01*
X-267961904Y760600000D01*
X-267914285Y760552380D01*
X-267866666Y760457142D01*
X-267866666Y760314285D01*
X-267914285Y760219047D01*
X-267961904Y760171428D01*
X-268057142Y760123809D01*
X-268438095Y760123809D01*
X-267390476Y759647619D02*
X-267199999Y759647619D01*
X-267104761Y759695238D01*
X-267057142Y759742857D01*
X-266961904Y759885714D01*
X-266914285Y760076190D01*
X-266914285Y760457142D01*
X-266961904Y760552380D01*
X-267009523Y760600000D01*
X-267104761Y760647619D01*
X-267295238Y760647619D01*
X-267390476Y760600000D01*
X-267438095Y760552380D01*
X-267485714Y760457142D01*
X-267485714Y760219047D01*
X-267438095Y760123809D01*
X-267390476Y760076190D01*
X-267295238Y760028571D01*
X-267104761Y760028571D01*
X-267009523Y760076190D01*
X-266961904Y760123809D01*
X-266914285Y760219047D01*
X-284066666Y766747619D02*
X-284400000Y767223809D01*
X-284638095Y766747619D02*
X-284638095Y767747619D01*
X-284257142Y767747619D01*
X-284161904Y767700000D01*
X-284114285Y767652380D01*
X-284066666Y767557142D01*
X-284066666Y767414285D01*
X-284114285Y767319047D01*
X-284161904Y767271428D01*
X-284257142Y767223809D01*
X-284638095Y767223809D01*
X-283161904Y767747619D02*
X-283638095Y767747619D01*
X-283685714Y767271428D01*
X-283638095Y767319047D01*
X-283542857Y767366666D01*
X-283304761Y767366666D01*
X-283209523Y767319047D01*
X-283161904Y767271428D01*
X-283114285Y767176190D01*
X-283114285Y766938095D01*
X-283161904Y766842857D01*
X-283209523Y766795238D01*
X-283304761Y766747619D01*
X-283542857Y766747619D01*
X-283638095Y766795238D01*
X-283685714Y766842857D01*
X-284066666Y770447619D02*
X-284400000Y770923809D01*
X-284638095Y770447619D02*
X-284638095Y771447619D01*
X-284257142Y771447619D01*
X-284161904Y771400000D01*
X-284114285Y771352380D01*
X-284066666Y771257142D01*
X-284066666Y771114285D01*
X-284114285Y771019047D01*
X-284161904Y770971428D01*
X-284257142Y770923809D01*
X-284638095Y770923809D01*
X-283733333Y771447619D02*
X-283066666Y771447619D01*
X-283495238Y770447619D01*
X-276166666Y759747619D02*
X-276500000Y760223809D01*
X-276738095Y759747619D02*
X-276738095Y760747619D01*
X-276357142Y760747619D01*
X-276261904Y760700000D01*
X-276214285Y760652380D01*
X-276166666Y760557142D01*
X-276166666Y760414285D01*
X-276214285Y760319047D01*
X-276261904Y760271428D01*
X-276357142Y760223809D01*
X-276738095Y760223809D01*
X-275595238Y760319047D02*
X-275690476Y760366666D01*
X-275738095Y760414285D01*
X-275785714Y760509523D01*
X-275785714Y760557142D01*
X-275738095Y760652380D01*
X-275690476Y760700000D01*
X-275595238Y760747619D01*
X-275404761Y760747619D01*
X-275309523Y760700000D01*
X-275261904Y760652380D01*
X-275214285Y760557142D01*
X-275214285Y760509523D01*
X-275261904Y760414285D01*
X-275309523Y760366666D01*
X-275404761Y760319047D01*
X-275595238Y760319047D01*
X-275690476Y760271428D01*
X-275738095Y760223809D01*
X-275785714Y760128571D01*
X-275785714Y759938095D01*
X-275738095Y759842857D01*
X-275690476Y759795238D01*
X-275595238Y759747619D01*
X-275404761Y759747619D01*
X-275309523Y759795238D01*
X-275261904Y759842857D01*
X-275214285Y759938095D01*
X-275214285Y760128571D01*
X-275261904Y760223809D01*
X-275309523Y760271428D01*
X-275404761Y760319047D01*
X-284066666Y762947619D02*
X-284400000Y763423809D01*
X-284638095Y762947619D02*
X-284638095Y763947619D01*
X-284257142Y763947619D01*
X-284161904Y763900000D01*
X-284114285Y763852380D01*
X-284066666Y763757142D01*
X-284066666Y763614285D01*
X-284114285Y763519047D01*
X-284161904Y763471428D01*
X-284257142Y763423809D01*
X-284638095Y763423809D01*
X-283209523Y763947619D02*
X-283400000Y763947619D01*
X-283495238Y763900000D01*
X-283542857Y763852380D01*
X-283638095Y763709523D01*
X-283685714Y763519047D01*
X-283685714Y763138095D01*
X-283638095Y763042857D01*
X-283590476Y762995238D01*
X-283495238Y762947619D01*
X-283304761Y762947619D01*
X-283209523Y762995238D01*
X-283161904Y763042857D01*
X-283114285Y763138095D01*
X-283114285Y763376190D01*
X-283161904Y763471428D01*
X-283209523Y763519047D01*
X-283304761Y763566666D01*
X-283495238Y763566666D01*
X-283590476Y763519047D01*
X-283638095Y763471428D01*
X-283685714Y763376190D01*
X-277842857Y774047619D02*
X-278176190Y774523809D01*
X-278414285Y774047619D02*
X-278414285Y775047619D01*
X-278033333Y775047619D01*
X-277938095Y775000000D01*
X-277890476Y774952380D01*
X-277842857Y774857142D01*
X-277842857Y774714285D01*
X-277890476Y774619047D01*
X-277938095Y774571428D01*
X-278033333Y774523809D01*
X-278414285Y774523809D01*
X-276890476Y774047619D02*
X-277461904Y774047619D01*
X-277176190Y774047619D02*
X-277176190Y775047619D01*
X-277271428Y774904761D01*
X-277366666Y774809523D01*
X-277461904Y774761904D01*
X-276271428Y775047619D02*
X-276176190Y775047619D01*
X-276080952Y775000000D01*
X-276033333Y774952380D01*
X-275985714Y774857142D01*
X-275938095Y774666666D01*
X-275938095Y774428571D01*
X-275985714Y774238095D01*
X-276033333Y774142857D01*
X-276080952Y774095238D01*
X-276176190Y774047619D01*
X-276271428Y774047619D01*
X-276366666Y774095238D01*
X-276414285Y774142857D01*
X-276461904Y774238095D01*
X-276509523Y774428571D01*
X-276509523Y774666666D01*
X-276461904Y774857142D01*
X-276414285Y774952380D01*
X-276366666Y775000000D01*
X-276271428Y775047619D01*
D14*
X-232500000Y752100000D02*
G75*
G03*
X-232500000Y752100000I-7000000J0D01*
G01*
D15*
X-236099000Y745209000D02*
G75*
G03*
X-236099000Y745209000I-100000J0D01*
G01*
D10*
X-237190000Y769830000D02*
X-238840000Y769830000D01*
X-233540000Y759550000D02*
X-233540000Y769830000D01*
X-238840000Y759550000D02*
X-233540000Y759550000D01*
X-233540000Y769830000D02*
X-235190000Y769830000D01*
X-238840000Y769830000D02*
X-238840000Y759550000D01*
X-237190000Y769830000D02*
G75*
G03*
X-235190000Y769830000I1000000J0D01*
G01*
X-244355000Y760200000D02*
X-246965000Y760200000D01*
X-241615000Y760200000D02*
G75*
G03*
X-241615000Y760200000I-1370000J0D01*
G01*
X-251370000Y757000000D02*
X-253980000Y757000000D01*
X-248630000Y757000000D02*
G75*
G03*
X-248630000Y757000000I-1370000J0D01*
G01*
X-251370000Y753500000D02*
X-253980000Y753500000D01*
X-248630000Y753500000D02*
G75*
G03*
X-248630000Y753500000I-1370000J0D01*
G01*
X-267830000Y765310000D02*
X-267830000Y763660000D01*
X-249930000Y768960000D02*
X-267830000Y768960000D01*
X-249930000Y763660000D02*
X-249930000Y768960000D01*
X-267830000Y768960000D02*
X-267830000Y767310000D01*
X-267830000Y763660000D02*
X-249930000Y763660000D01*
X-267830000Y765310000D02*
G75*
G03*
X-267830000Y767310000I0J1000000D01*
G01*
D12*
X-211410000Y759160000D02*
X-229190000Y759160000D01*
X-211410000Y789640000D02*
X-211410000Y759160000D01*
X-216490000Y789640000D02*
X-211410000Y789640000D01*
X-229190000Y789640000D02*
X-224110000Y789640000D01*
X-224110000Y789640000D02*
X-224110000Y792180000D01*
X-224110000Y792180000D02*
X-216490000Y792180000D01*
X-216490000Y792180000D02*
X-216490000Y789640000D01*
X-229190000Y789640000D02*
X-229190000Y759160000D01*
X-208790000Y789630000D02*
X-191010000Y789630000D01*
X-208790000Y750260000D02*
X-208790000Y789630000D01*
D10*
X-193550000Y795980000D02*
X-206250000Y795980000D01*
X-193550000Y782010000D02*
X-193550000Y795980000D01*
D12*
X-191010000Y750260000D02*
X-191010000Y789630000D01*
D10*
X-206250000Y782010000D02*
X-193550000Y782010000D01*
D12*
X-191010000Y750260000D02*
X-196090000Y750260000D01*
D10*
X-206250000Y795980000D02*
X-206250000Y782010000D01*
D12*
X-203710000Y750260000D02*
X-208790000Y750260000D01*
D10*
X-203710000Y750260000D02*
X-196090000Y750260000D01*
X-223949000Y756864000D02*
X-223949000Y756040000D01*
X-224949000Y753960000D02*
X-224949000Y752545000D01*
X-223549000Y753960000D02*
X-223549000Y753617000D01*
X-223189000Y755518000D02*
X-223189000Y754482000D01*
X-225310000Y757543000D02*
X-225310000Y756040000D01*
X-223269000Y755805000D02*
X-223269000Y754195000D01*
X-224309000Y757149000D02*
X-224309000Y756040000D01*
X-224469000Y757247000D02*
X-224469000Y756040000D01*
X-224669000Y753960000D02*
X-224669000Y752652000D01*
X-224629000Y753960000D02*
X-224629000Y752671000D01*
X-223469000Y753960000D02*
X-223469000Y753749000D01*
X-223629000Y756500000D02*
X-223629000Y756040000D01*
X-224429000Y757224000D02*
X-224429000Y756040000D01*
X-225230000Y753960000D02*
X-225230000Y752472000D01*
X-224829000Y757414000D02*
X-224829000Y756040000D01*
X-225070000Y753960000D02*
X-225070000Y752509000D01*
X-225390000Y757556000D02*
X-225390000Y756040000D01*
X-228304775Y756725000D02*
X-228304775Y756225000D01*
X-224229000Y753960000D02*
X-224229000Y752905000D01*
X-224549000Y753960000D02*
X-224549000Y752710000D01*
X-224029000Y753960000D02*
X-224029000Y753063000D01*
X-224029000Y756937000D02*
X-224029000Y756040000D01*
X-224509000Y757268000D02*
X-224509000Y756040000D01*
X-223349000Y756011000D02*
X-223349000Y753989000D01*
X-224989000Y753960000D02*
X-224989000Y752532000D01*
X-223229000Y755677000D02*
X-223229000Y754323000D01*
X-225230000Y757528000D02*
X-225230000Y756040000D01*
X-223629000Y753960000D02*
X-223629000Y753500000D01*
X-224349000Y757175000D02*
X-224349000Y756040000D01*
X-225550000Y757573000D02*
X-225550000Y752427000D01*
X-224149000Y757035000D02*
X-224149000Y756040000D01*
X-224749000Y753960000D02*
X-224749000Y752618000D01*
X-223669000Y753960000D02*
X-223669000Y753446000D01*
X-224789000Y753960000D02*
X-224789000Y752602000D01*
X-224589000Y753960000D02*
X-224589000Y752690000D01*
X-223509000Y753960000D02*
X-223509000Y753681000D01*
X-224669000Y757348000D02*
X-224669000Y756040000D01*
X-225190000Y757520000D02*
X-225190000Y756040000D01*
X-228554775Y756475000D02*
X-228054775Y756475000D01*
X-223829000Y756743000D02*
X-223829000Y756040000D01*
X-223749000Y756653000D02*
X-223749000Y756040000D01*
X-223989000Y756901000D02*
X-223989000Y756040000D01*
X-225190000Y753960000D02*
X-225190000Y752480000D01*
X-223789000Y756699000D02*
X-223789000Y756040000D01*
X-225350000Y753960000D02*
X-225350000Y752450000D01*
X-224869000Y753960000D02*
X-224869000Y752572000D01*
X-224069000Y756971000D02*
X-224069000Y756040000D01*
X-224629000Y757329000D02*
X-224629000Y756040000D01*
X-225710000Y757580000D02*
X-225710000Y752420000D01*
X-224229000Y757095000D02*
X-224229000Y756040000D01*
X-225350000Y757550000D02*
X-225350000Y756040000D01*
X-223429000Y756178000D02*
X-223429000Y753822000D01*
X-223869000Y753960000D02*
X-223869000Y753215000D01*
X-223469000Y756251000D02*
X-223469000Y756040000D01*
X-225110000Y753960000D02*
X-225110000Y752499000D01*
X-224909000Y757442000D02*
X-224909000Y756040000D01*
X-223989000Y753960000D02*
X-223989000Y753099000D01*
X-224509000Y753960000D02*
X-224509000Y752732000D01*
X-224309000Y753960000D02*
X-224309000Y752851000D01*
X-225510000Y753960000D02*
X-225510000Y752431000D01*
X-224269000Y753960000D02*
X-224269000Y752878000D01*
X-224149000Y753960000D02*
X-224149000Y752965000D01*
X-225630000Y757578000D02*
X-225630000Y752422000D01*
X-224909000Y753960000D02*
X-224909000Y752558000D01*
X-224749000Y757382000D02*
X-224749000Y756040000D01*
X-225430000Y757561000D02*
X-225430000Y756040000D01*
X-224469000Y753960000D02*
X-224469000Y752753000D01*
X-225590000Y757576000D02*
X-225590000Y752424000D01*
X-225430000Y753960000D02*
X-225430000Y752439000D01*
X-223869000Y756785000D02*
X-223869000Y756040000D01*
X-225070000Y757491000D02*
X-225070000Y756040000D01*
X-223309000Y755915000D02*
X-223309000Y754085000D01*
X-223149000Y755284000D02*
X-223149000Y754716000D01*
X-224109000Y757004000D02*
X-224109000Y756040000D01*
X-225470000Y757565000D02*
X-225470000Y756040000D01*
X-225029000Y753960000D02*
X-225029000Y752520000D01*
X-225270000Y753960000D02*
X-225270000Y752464000D01*
X-224709000Y757365000D02*
X-224709000Y756040000D01*
X-224389000Y753960000D02*
X-224389000Y752800000D01*
X-223589000Y753960000D02*
X-223589000Y753557000D01*
X-223669000Y756554000D02*
X-223669000Y756040000D01*
X-224189000Y757065000D02*
X-224189000Y756040000D01*
X-224269000Y757122000D02*
X-224269000Y756040000D01*
X-224389000Y757200000D02*
X-224389000Y756040000D01*
X-224949000Y757455000D02*
X-224949000Y756040000D01*
X-225150000Y757511000D02*
X-225150000Y756040000D01*
X-224109000Y753960000D02*
X-224109000Y752996000D01*
X-224429000Y753960000D02*
X-224429000Y752776000D01*
X-224589000Y757310000D02*
X-224589000Y756040000D01*
X-223949000Y753960000D02*
X-223949000Y753136000D01*
X-225110000Y757501000D02*
X-225110000Y756040000D01*
X-223709000Y753960000D02*
X-223709000Y753395000D01*
X-225270000Y757536000D02*
X-225270000Y756040000D01*
X-223909000Y753960000D02*
X-223909000Y753174000D01*
X-224069000Y753960000D02*
X-224069000Y753029000D01*
X-224549000Y757290000D02*
X-224549000Y756040000D01*
X-224349000Y753960000D02*
X-224349000Y752825000D01*
X-225750000Y757580000D02*
X-225750000Y752420000D01*
X-225029000Y757480000D02*
X-225029000Y756040000D01*
X-223549000Y756383000D02*
X-223549000Y756040000D01*
X-224829000Y753960000D02*
X-224829000Y752586000D01*
X-223589000Y756443000D02*
X-223589000Y756040000D01*
X-224869000Y757428000D02*
X-224869000Y756040000D01*
X-223909000Y756826000D02*
X-223909000Y756040000D01*
X-225150000Y753960000D02*
X-225150000Y752489000D01*
X-223509000Y756319000D02*
X-223509000Y756040000D01*
X-223789000Y753960000D02*
X-223789000Y753301000D01*
X-224189000Y753960000D02*
X-224189000Y752935000D01*
X-224709000Y753960000D02*
X-224709000Y752635000D01*
X-223389000Y756098000D02*
X-223389000Y753902000D01*
X-225510000Y757569000D02*
X-225510000Y756040000D01*
X-225310000Y753960000D02*
X-225310000Y752457000D01*
X-225390000Y753960000D02*
X-225390000Y752444000D01*
X-223829000Y753960000D02*
X-223829000Y753257000D01*
X-223709000Y756605000D02*
X-223709000Y756040000D01*
X-224789000Y757398000D02*
X-224789000Y756040000D01*
X-223749000Y753960000D02*
X-223749000Y753347000D01*
X-225670000Y757579000D02*
X-225670000Y752421000D01*
X-224989000Y757468000D02*
X-224989000Y756040000D01*
X-225470000Y753960000D02*
X-225470000Y752435000D01*
X-223130000Y755000000D02*
G75*
G03*
X-223130000Y755000000I-2620000J0D01*
G01*
X-246080000Y767660000D02*
X-248920000Y767660000D01*
X-248740000Y768260000D02*
X-248920000Y768260000D01*
X-246080000Y767780000D02*
X-248920000Y767780000D01*
X-248920000Y764820000D02*
X-248740000Y764820000D01*
X-248920000Y768260000D02*
X-248920000Y764820000D01*
X-246080000Y768260000D02*
X-246080000Y764820000D01*
X-246260000Y768260000D02*
X-246080000Y768260000D01*
X-246080000Y764820000D02*
X-246260000Y764820000D01*
X-246080000Y767540000D02*
X-248920000Y767540000D01*
X-223500000Y750750000D02*
X-223500000Y745670000D01*
X-231110000Y750830000D02*
X-231110000Y745630000D01*
X-213270000Y750830000D02*
X-231110000Y750830000D01*
X-210670000Y750830000D02*
X-210670000Y748250000D01*
X-221000000Y750830000D02*
X-221000000Y745750000D01*
X-210670000Y745630000D02*
X-231110000Y745630000D01*
X-213250000Y750830000D02*
X-210670000Y750830000D01*
X-210670000Y748230000D02*
X-210670000Y745630000D01*
X-213270000Y750830000D02*
X-213270000Y745750000D01*
X-200255000Y749590000D02*
X-200255000Y749770000D01*
X-200255000Y746930000D02*
X-196815000Y746930000D01*
X-200255000Y749770000D02*
X-196815000Y749770000D01*
X-196815000Y749770000D02*
X-196815000Y749590000D01*
X-200255000Y747110000D02*
X-200255000Y746930000D01*
X-199655000Y749770000D02*
X-199655000Y746930000D01*
X-196815000Y746930000D02*
X-196815000Y747110000D01*
X-199535000Y749770000D02*
X-199535000Y746930000D01*
X-199775000Y749770000D02*
X-199775000Y746930000D01*
X-243500000Y765370000D02*
X-243500000Y767980000D01*
X-242130000Y764000000D02*
G75*
G03*
X-242130000Y764000000I-1370000J0D01*
G01*
X-190570000Y786720000D02*
X-190570000Y789380000D01*
X-203330000Y789380000D02*
X-190570000Y789380000D01*
X-203330000Y786720000D02*
X-203330000Y789380000D01*
X-203330000Y786720000D02*
X-190570000Y786720000D01*
X-205930000Y789380000D02*
X-204600000Y789380000D01*
X-205930000Y788050000D02*
X-205930000Y789380000D01*
X-208030000Y745650000D02*
X-204430000Y745650000D01*
X-204421555Y745672316D02*
G75*
G03*
X-205450000Y749950000I-1808445J1827684D01*
G01*
X-207050000Y749950000D02*
G75*
G03*
X-208041875Y745658259I820000J-2450000D01*
G01*
D12*
X-275904000Y777904000D02*
X-288096000Y777904000D01*
X-287080000Y790604000D02*
X-276920000Y790604000D01*
X-279460000Y790604000D02*
X-279460000Y792128000D01*
X-285810000Y785524000D02*
X-285810000Y789080000D01*
X-284540000Y791366000D02*
X-279460000Y791366000D01*
X-275904000Y790096000D02*
X-276920000Y790096000D01*
X-276920000Y790604000D02*
X-276920000Y790096000D01*
X-287080000Y790096000D02*
X-287080000Y790350000D01*
X-287080000Y790350000D02*
X-287080000Y790604000D01*
X-284540000Y792128000D02*
X-284540000Y790604000D01*
X-278190000Y789080000D02*
X-278190000Y785524000D01*
X-283778000Y785524000D02*
X-285810000Y785524000D01*
X-278190000Y785524000D02*
X-280222000Y785524000D01*
X-288096000Y777904000D02*
X-288096000Y790096000D01*
X-284540000Y792128000D02*
X-279460000Y792128000D01*
X-275904000Y790096000D02*
X-275904000Y777904000D01*
X-287080000Y790096000D02*
X-288096000Y790096000D01*
X-285810000Y789080000D02*
X-278190000Y789080000D01*
D10*
X-278750000Y757834338D02*
X-279000000Y757401325D01*
X-288945000Y745380000D02*
X-288945000Y755880000D01*
X-287885000Y756940000D02*
X-259035000Y756940000D01*
X-279000000Y757401325D02*
X-279250000Y757834338D01*
X-259035000Y744320000D02*
X-287885000Y744320000D01*
X-257975000Y755880000D02*
X-257975000Y745380000D01*
X-279250000Y757834338D02*
X-278750000Y757834338D01*
X-279691689Y754840000D02*
X-267228311Y754840000D01*
X-265593530Y752891744D02*
X-266492798Y747791744D01*
X-278792421Y746420000D02*
X-268127579Y746420000D01*
X-281326470Y752891744D02*
X-280427202Y747791744D01*
X-280427201Y747791744D02*
G75*
G03*
X-278792421Y746420000I1634781J288256D01*
G01*
X-287885000Y756940000D02*
G75*
G03*
X-288945000Y755880000I1J-1060001D01*
G01*
X-257975000Y755880000D02*
G75*
G03*
X-259035000Y756940000I-1060000J0D01*
G01*
X-265593519Y752891742D02*
G75*
G03*
X-267228311Y754840000I-1634781J288258D01*
G01*
X-259035000Y744320000D02*
G75*
G03*
X-257975000Y745380000I0J1060000D01*
G01*
X-288945000Y745380000D02*
G75*
G03*
X-287885000Y744320000I1060001J1D01*
G01*
X-279691689Y754840000D02*
G75*
G03*
X-281326470Y752891744I-1J-1659999D01*
G01*
X-268127579Y746419999D02*
G75*
G03*
X-266492798Y747791744I-1J1660001D01*
G01*
D12*
X-245310000Y789080000D02*
X-237690000Y789080000D01*
X-235404000Y790096000D02*
X-236420000Y790096000D01*
X-246580000Y790604000D02*
X-236420000Y790604000D01*
X-236420000Y790604000D02*
X-236420000Y790096000D01*
X-246580000Y790096000D02*
X-247596000Y790096000D01*
X-238960000Y790604000D02*
X-238960000Y792128000D01*
X-237690000Y785524000D02*
X-239722000Y785524000D01*
X-246580000Y790350000D02*
X-246580000Y790604000D01*
X-244040000Y791366000D02*
X-238960000Y791366000D01*
X-247596000Y777904000D02*
X-247596000Y790096000D01*
X-246580000Y790096000D02*
X-246580000Y790350000D01*
X-244040000Y792128000D02*
X-238960000Y792128000D01*
X-235404000Y790096000D02*
X-235404000Y777904000D01*
X-244040000Y792128000D02*
X-244040000Y790604000D01*
X-245310000Y785524000D02*
X-245310000Y789080000D01*
X-235404000Y777904000D02*
X-247596000Y777904000D01*
X-237690000Y789080000D02*
X-237690000Y785524000D01*
X-243278000Y785524000D02*
X-245310000Y785524000D01*
D10*
X-251500000Y771750000D02*
X-251500000Y790540000D01*
X-231500000Y771750000D02*
X-231500000Y790540000D01*
X-231500000Y790540000D02*
X-251500000Y790540000D01*
X-231250000Y771750000D02*
X-251500000Y771750000D01*
D12*
X-258690000Y785524000D02*
X-260722000Y785524000D01*
X-259960000Y790604000D02*
X-259960000Y792128000D01*
X-256404000Y777904000D02*
X-268596000Y777904000D01*
X-268596000Y777904000D02*
X-268596000Y790096000D01*
X-256404000Y790096000D02*
X-256404000Y777904000D01*
X-266310000Y785524000D02*
X-266310000Y789080000D01*
X-258690000Y789080000D02*
X-258690000Y785524000D01*
X-267580000Y790350000D02*
X-267580000Y790604000D01*
X-264278000Y785524000D02*
X-266310000Y785524000D01*
X-267580000Y790096000D02*
X-268596000Y790096000D01*
X-257420000Y790604000D02*
X-257420000Y790096000D01*
X-267580000Y790096000D02*
X-267580000Y790350000D01*
X-265040000Y792128000D02*
X-265040000Y790604000D01*
X-265040000Y792128000D02*
X-259960000Y792128000D01*
X-266310000Y789080000D02*
X-258690000Y789080000D01*
X-256404000Y790096000D02*
X-257420000Y790096000D01*
X-267580000Y790604000D02*
X-257420000Y790604000D01*
X-265040000Y791366000D02*
X-259960000Y791366000D01*
D10*
X-252250000Y771750000D02*
X-272500000Y771750000D01*
X-252500000Y790540000D02*
X-272500000Y790540000D01*
X-272500000Y771750000D02*
X-272500000Y790540000D01*
X-252500000Y771750000D02*
X-252500000Y790540000D01*
X-214800000Y754800000D02*
X-214800000Y756300000D01*
X-216050000Y758800000D02*
X-220550000Y758800000D01*
X-221800000Y756300000D02*
X-221800000Y754800000D01*
X-220550000Y752300000D02*
X-216050000Y752300000D01*
X-279130000Y764035000D02*
X-268850000Y764035000D01*
X-279130000Y765285000D02*
X-279130000Y764035000D01*
X-268850000Y764035000D02*
X-268850000Y768535000D01*
X-279130000Y768535000D02*
X-279130000Y767285000D01*
X-268850000Y768535000D02*
X-279130000Y768535000D01*
X-279130000Y765285000D02*
G75*
G03*
X-279130000Y767285000I0J1000000D01*
G01*
X-248515000Y745545000D02*
X-248515000Y748205000D01*
X-253655000Y748205000D02*
X-248515000Y748205000D01*
X-253655000Y745545000D02*
X-248515000Y745545000D01*
X-253655000Y745545000D02*
X-253655000Y748205000D01*
X-256255000Y748205000D02*
X-254925000Y748205000D01*
X-256255000Y746875000D02*
X-256255000Y748205000D01*
X-253620000Y750765000D02*
X-248480000Y750765000D01*
X-256220000Y750765000D02*
X-254890000Y750765000D01*
X-253620000Y748105000D02*
X-253620000Y750765000D01*
X-256220000Y749435000D02*
X-256220000Y750765000D01*
X-253620000Y748105000D02*
X-248480000Y748105000D01*
X-248480000Y748105000D02*
X-248480000Y750765000D01*
X-269145000Y759200000D02*
X-266535000Y759200000D01*
X-269145000Y759200000D02*
G75*
G03*
X-269145000Y759200000I-1370000J0D01*
G01*
X-285245000Y766400000D02*
X-282635000Y766400000D01*
X-285245000Y766400000D02*
G75*
G03*
X-285245000Y766400000I-1370000J0D01*
G01*
X-285245000Y770000000D02*
X-282635000Y770000000D01*
X-285245000Y770000000D02*
G75*
G03*
X-285245000Y770000000I-1370000J0D01*
G01*
X-277345000Y759200000D02*
X-274735000Y759200000D01*
X-277345000Y759200000D02*
G75*
G03*
X-277345000Y759200000I-1370000J0D01*
G01*
X-285245000Y762600000D02*
X-282635000Y762600000D01*
X-285245000Y762600000D02*
G75*
G03*
X-285245000Y762600000I-1370000J0D01*
G01*
X-278945000Y773500000D02*
X-276335000Y773500000D01*
X-278945000Y773500000D02*
G75*
G03*
X-278945000Y773500000I-1370000J0D01*
G01*
D16*
X-227920000Y788370000D03*
D17*
X-227920000Y785830000D03*
X-227920000Y783290000D03*
X-227920000Y780750000D03*
X-227920000Y778210000D03*
X-227920000Y775670000D03*
X-227920000Y773130000D03*
X-227920000Y770590000D03*
X-227920000Y768050000D03*
X-227920000Y765510000D03*
X-227920000Y762970000D03*
X-227920000Y760430000D03*
X-212680000Y760430000D03*
X-212680000Y762970000D03*
X-212680000Y765510000D03*
X-212680000Y768050000D03*
X-212680000Y770590000D03*
X-212680000Y773130000D03*
X-212680000Y775670000D03*
X-212680000Y778210000D03*
X-212680000Y780750000D03*
X-212680000Y783290000D03*
X-212680000Y785830000D03*
X-212680000Y788370000D03*
D16*
X-192280000Y751530000D03*
D17*
X-192280000Y754070000D03*
X-192280000Y756610000D03*
X-192280000Y759150000D03*
X-192280000Y761690000D03*
X-192280000Y764230000D03*
X-192280000Y766770000D03*
X-192280000Y769310000D03*
X-192280000Y771850000D03*
X-192280000Y774390000D03*
X-192280000Y776930000D03*
X-192280000Y779470000D03*
X-207520000Y779470000D03*
X-207520000Y776930000D03*
X-207520000Y774390000D03*
X-207520000Y771850000D03*
X-207520000Y769310000D03*
X-207520000Y766770000D03*
X-207520000Y764230000D03*
X-207520000Y761690000D03*
X-207520000Y759150000D03*
X-207520000Y756610000D03*
X-207520000Y754070000D03*
X-207520000Y751530000D03*
X-194820000Y779470000D03*
D18*
X-277000000Y780590000D03*
X-279500000Y780590000D03*
D19*
X-282000000Y785596000D03*
D18*
X-287000000Y780590000D03*
X-284500000Y780590000D03*
X-236500000Y780590000D03*
X-239000000Y780590000D03*
D19*
X-241500000Y785596000D03*
D18*
X-246500000Y780590000D03*
X-244000000Y780590000D03*
X-257500000Y780590000D03*
X-260000000Y780590000D03*
D19*
X-262500000Y785596000D03*
D18*
X-267500000Y780590000D03*
X-265000000Y780590000D03*
M02*
