G04 #@! TF.GenerationSoftware,KiCad,Pcbnew,6.0.5*
G04 #@! TF.CreationDate,2022-06-22T19:05:55+10:00*
G04 #@! TF.ProjectId,_transcribe_,5f747261-6e73-4637-9269-62655f2e6b69,v0_5_1*
G04 #@! TF.SameCoordinates,Original*
G04 #@! TF.FileFunction,Soldermask,Top*
G04 #@! TF.FilePolarity,Negative*
%FSLAX46Y46*%
G04 Gerber Fmt 4.6, Leading zero omitted, Abs format (unit mm)*
G04 Created by KiCad (PCBNEW 6.0.5) date 2022-06-22 19:05:55*
%MOMM*%
%LPD*%
G01*
G04 APERTURE LIST*
G04 Aperture macros list*
%AMRoundRect*
0 Rectangle with rounded corners*
0 $1 Rounding radius*
0 $2 $3 $4 $5 $6 $7 $8 $9 X,Y pos of 4 corners*
0 Add a 4 corners polygon primitive as box body*
4,1,4,$2,$3,$4,$5,$6,$7,$8,$9,$2,$3,0*
0 Add four circle primitives for the rounded corners*
1,1,$1+$1,$2,$3*
1,1,$1+$1,$4,$5*
1,1,$1+$1,$6,$7*
1,1,$1+$1,$8,$9*
0 Add four rect primitives between the rounded corners*
20,1,$1+$1,$2,$3,$4,$5,0*
20,1,$1+$1,$4,$5,$6,$7,0*
20,1,$1+$1,$6,$7,$8,$9,0*
20,1,$1+$1,$8,$9,$2,$3,0*%
G04 Aperture macros list end*
%ADD10RoundRect,0.051000X0.850000X-0.850000X0.850000X0.850000X-0.850000X0.850000X-0.850000X-0.850000X0*%
%ADD11O,1.802000X1.802000*%
%ADD12C,1.702000*%
%ADD13RoundRect,0.051000X-0.800000X-0.800000X0.800000X-0.800000X0.800000X0.800000X-0.800000X0.800000X0*%
%ADD14RoundRect,0.051000X0.800000X-1.200000X0.800000X1.200000X-0.800000X1.200000X-0.800000X-1.200000X0*%
%ADD15O,1.702000X2.502000*%
%ADD16O,1.702000X1.702000*%
%ADD17C,2.402000*%
%ADD18C,2.102000*%
%ADD19RoundRect,0.051000X-1.750000X-1.250000X1.750000X-1.250000X1.750000X1.250000X-1.750000X1.250000X0*%
%ADD20O,1.852000X3.602000*%
%ADD21RoundRect,0.051000X-0.800000X0.800000X-0.800000X-0.800000X0.800000X-0.800000X0.800000X0.800000X0*%
%ADD22RoundRect,0.051000X0.800000X-0.800000X0.800000X0.800000X-0.800000X0.800000X-0.800000X-0.800000X0*%
%ADD23RoundRect,0.051000X-1.000000X1.000000X-1.000000X-1.000000X1.000000X-1.000000X1.000000X1.000000X0*%
%ADD24O,2.102000X2.102000*%
%ADD25RoundRect,0.051000X-1.000000X-1.000000X1.000000X-1.000000X1.000000X1.000000X-1.000000X1.000000X0*%
%ADD26RoundRect,0.051000X-0.850000X0.850000X-0.850000X-0.850000X0.850000X-0.850000X0.850000X0.850000X0*%
%ADD27RoundRect,0.326000X-0.275000X-0.625000X0.275000X-0.625000X0.275000X0.625000X-0.275000X0.625000X0*%
%ADD28RoundRect,0.051000X-0.550000X-0.900000X0.550000X-0.900000X0.550000X0.900000X-0.550000X0.900000X0*%
%ADD29C,4.102000*%
G04 APERTURE END LIST*
D10*
X-254925000Y746875000D03*
D11*
X-252385000Y746875000D03*
X-249845000Y746875000D03*
D12*
X-224500000Y755000000D03*
D13*
X-227000000Y755000000D03*
D14*
X-277800000Y762475000D03*
D15*
X-275260000Y762475000D03*
X-272720000Y762475000D03*
X-270180000Y762475000D03*
X-270180000Y770095000D03*
X-272720000Y770095000D03*
X-275260000Y770095000D03*
X-277800000Y770095000D03*
D16*
X-275235000Y773500000D03*
D12*
X-280315000Y773500000D03*
X-270515000Y759200000D03*
D16*
X-265435000Y759200000D03*
D12*
X-278715000Y759200000D03*
D16*
X-273635000Y759200000D03*
D12*
X-286615000Y770000000D03*
D16*
X-281535000Y770000000D03*
D12*
X-286615000Y762600000D03*
D16*
X-281535000Y762600000D03*
D12*
X-286615000Y766400000D03*
D16*
X-281535000Y766400000D03*
D10*
X-254890000Y749435000D03*
D11*
X-252350000Y749435000D03*
X-249810000Y749435000D03*
D17*
X-236500000Y775500000D03*
D18*
X-246500000Y787500000D03*
D17*
X-234000000Y778000000D03*
X-241500000Y778000000D03*
X-249000000Y778000000D03*
X-246500000Y775500000D03*
D18*
X-236500000Y787500000D03*
D17*
X-257500000Y775500000D03*
D18*
X-267500000Y787500000D03*
D17*
X-255000000Y778000000D03*
X-262500000Y778000000D03*
X-270000000Y778000000D03*
X-267500000Y775500000D03*
D18*
X-257500000Y787500000D03*
D19*
X-282000000Y785596000D03*
D20*
X-277000000Y780590000D03*
X-287000000Y780590000D03*
X-279500000Y780590000D03*
X-284500000Y780590000D03*
D19*
X-241500000Y785596000D03*
D20*
X-236500000Y780590000D03*
X-246500000Y780590000D03*
X-239000000Y780590000D03*
X-244000000Y780590000D03*
D19*
X-262500000Y785596000D03*
D20*
X-257500000Y780590000D03*
X-267500000Y780590000D03*
X-260000000Y780590000D03*
X-265000000Y780590000D03*
D12*
X-212680000Y788370000D03*
X-212680000Y785830000D03*
X-212680000Y783290000D03*
X-212680000Y780750000D03*
X-212680000Y778210000D03*
X-212680000Y775670000D03*
X-212680000Y773130000D03*
X-212680000Y770590000D03*
X-212680000Y768050000D03*
X-212680000Y765510000D03*
X-212680000Y762970000D03*
X-212680000Y760430000D03*
X-227920000Y760430000D03*
X-227920000Y762970000D03*
X-227920000Y765510000D03*
X-227920000Y768050000D03*
X-227920000Y770590000D03*
X-227920000Y773130000D03*
X-227920000Y775670000D03*
X-227920000Y778210000D03*
X-227920000Y780750000D03*
X-227920000Y783290000D03*
X-227920000Y785830000D03*
D21*
X-227920000Y788370000D03*
D12*
X-194820000Y779470000D03*
D22*
X-192280000Y751530000D03*
D12*
X-192280000Y754070000D03*
X-192280000Y756610000D03*
X-192280000Y759150000D03*
X-192280000Y761690000D03*
X-192280000Y764230000D03*
X-192280000Y766770000D03*
X-192280000Y769310000D03*
X-192280000Y771850000D03*
X-192280000Y774390000D03*
X-192280000Y776930000D03*
X-192280000Y779470000D03*
X-207520000Y779470000D03*
X-207520000Y776930000D03*
X-207520000Y774390000D03*
X-207520000Y771850000D03*
X-207520000Y769310000D03*
X-207520000Y766770000D03*
X-207520000Y764230000D03*
X-207520000Y761690000D03*
X-207520000Y759150000D03*
X-207520000Y756610000D03*
X-207520000Y754070000D03*
X-207520000Y751530000D03*
D23*
X-247500000Y769080000D03*
D24*
X-247500000Y764000000D03*
D16*
X-255080000Y753500000D03*
D12*
X-250000000Y753500000D03*
D13*
X-240000000Y768500000D03*
D16*
X-232380000Y760880000D03*
X-240000000Y765960000D03*
X-232380000Y763420000D03*
X-240000000Y763420000D03*
X-232380000Y765960000D03*
X-240000000Y760880000D03*
X-232380000Y768500000D03*
X-243500000Y769080000D03*
D12*
X-243500000Y764000000D03*
D16*
X-237580000Y756500000D03*
D12*
X-232500000Y756500000D03*
X-250000000Y757000000D03*
D16*
X-255080000Y757000000D03*
D22*
X-266500000Y762500000D03*
D16*
X-251260000Y770120000D03*
X-263960000Y762500000D03*
X-253800000Y770120000D03*
X-261420000Y762500000D03*
X-256340000Y770120000D03*
X-258880000Y762500000D03*
X-258880000Y770120000D03*
X-256340000Y762500000D03*
X-261420000Y770120000D03*
X-253800000Y762500000D03*
X-263960000Y770120000D03*
X-251260000Y762500000D03*
X-266500000Y770120000D03*
D24*
X-195995000Y748350000D03*
D25*
X-201075000Y748350000D03*
D26*
X-212000000Y749500000D03*
D11*
X-212000000Y746960000D03*
X-214540000Y749500000D03*
X-214540000Y746960000D03*
X-217080000Y749500000D03*
X-217080000Y746960000D03*
X-219620000Y749500000D03*
X-219620000Y746960000D03*
X-222160000Y749500000D03*
X-222160000Y746960000D03*
X-224700000Y749500000D03*
X-224700000Y746960000D03*
X-227240000Y749500000D03*
X-227240000Y746960000D03*
X-229780000Y749500000D03*
X-229780000Y746960000D03*
D10*
X-204600000Y788050000D03*
D11*
X-202060000Y788050000D03*
X-199520000Y788050000D03*
X-196980000Y788050000D03*
X-194440000Y788050000D03*
X-191900000Y788050000D03*
D27*
X-206230000Y749170000D03*
X-204960000Y747100000D03*
D28*
X-207500000Y747100000D03*
D25*
X-279000000Y752050000D03*
D18*
X-276230000Y752050000D03*
X-273460000Y752050000D03*
X-270690000Y752050000D03*
X-267920000Y752050000D03*
X-277615000Y749210000D03*
X-274845000Y749210000D03*
X-272075000Y749210000D03*
X-269305000Y749210000D03*
D29*
X-285960000Y750630000D03*
X-260960000Y750630000D03*
D18*
X-215050000Y757800000D03*
X-215050000Y753300000D03*
X-221550000Y757800000D03*
X-221550000Y753300000D03*
M02*
